<?xml version="1.0" encoding="UTF-8" standalone="no"?>
<svg
   viewBox="0 0 128 128"
   version="1.1"
   id="svg8"
   sodipodi:docname="react.svg"
   inkscape:version="1.2 (dc2aedaf03, 2022-05-15)"
   xmlns:inkscape="http://www.inkscape.org/namespaces/inkscape"
   xmlns:sodipodi="http://sodipodi.sourceforge.net/DTD/sodipodi-0.dtd"
   xmlns="http://www.w3.org/2000/svg"
   xmlns:svg="http://www.w3.org/2000/svg">
  <defs
     id="defs12" />
  <sodipodi:namedview
     id="namedview10"
     pagecolor="#ffffff"
     bordercolor="#666666"
     borderopacity="1.0"
     inkscape:pageshadow="2"
     inkscape:pageopacity="0.0"
     inkscape:pagecheckerboard="0"
     showgrid="false"
     inkscape:zoom="2.9112912"
     inkscape:cx="112.83653"
     inkscape:cy="61.828236"
     inkscape:window-width="1366"
     inkscape:window-height="713"
     inkscape:window-x="0"
     inkscape:window-y="0"
     inkscape:window-maximized="1"
     inkscape:current-layer="svg8"
     inkscape:showpageshadow="2"
     inkscape:deskcolor="#d1d1d1" />
  <circle
     cx="64"
     cy="64"
     r="11.516922"
     id="circle2"
     style="fill:#61dafb;stroke-width:1.23837" />
  <path
     d="m 64.000002,106.29063 c 9.040165,8.7925 17.956492,13.99369 25.139084,13.99369 2.352922,0 4.582008,-0.49536 6.439575,-1.6099 6.439559,-3.71514 8.792479,-13.00297 6.563399,-26.253634 -0.37151,-2.352919 -0.86687,-4.705839 -1.48605,-7.182597 2.47676,-0.743026 4.70583,-1.486054 6.93492,-2.229081 12.50762,-4.829677 19.44254,-11.516922 19.44254,-18.823356 0,-7.430273 -6.93492,-14.117518 -19.44254,-18.823357 -2.22909,-0.866865 -4.45816,-1.609892 -6.93492,-2.229081 0.61918,-2.476758 1.11454,-4.829677 1.48605,-7.182597 C 104.24731,22.45239 101.89438,13.040711 95.454824,9.3255752 93.597258,8.2110344 91.368172,7.7156829 89.015249,7.7156829 c -7.058755,0 -16.09892,5.2011911 -25.139084,13.9936791 C 54.959838,12.916874 46.043512,7.7156828 38.860915,7.7156828 c -2.352919,0 -4.582001,0.4953515 -6.439569,1.6098923 -6.439569,3.7151359 -8.792489,13.0029759 -6.563408,26.2536289 0.371515,2.35292 0.866866,4.705839 1.486056,7.182596 -2.476758,0.743028 -4.70584,1.486054 -6.934921,2.229082 C 7.9014473,49.820559 0.96652647,56.507803 0.96652647,63.814239 c 0,7.430271 6.93492083,14.117516 19.44254653,18.823355 2.229081,0.866865 4.458163,1.609893 6.934921,2.229082 -0.61919,2.476757 -1.114541,4.829677 -1.486056,7.182596 -2.105243,13.250658 0.247676,22.662338 6.563408,26.253638 1.857568,1.11454 4.08665,1.60989 6.439569,1.60989 7.182597,0.24767 16.098923,-4.95352 25.139087,-13.62217 z M 57.065083,89.572515 c 2.229081,0.123838 4.582,0.123838 6.934919,0.123838 2.35292,0 4.705839,0 6.934921,-0.123838 -2.229082,2.972109 -4.582001,5.696542 -6.934921,8.297137 -2.352919,-2.600595 -4.705838,-5.325028 -6.934919,-8.297137 z M 41.709186,76.817214 c 1.238379,2.105244 2.35292,4.08665 3.715137,6.068056 -3.838975,-0.495352 -7.430273,-1.114541 -10.897733,-1.857568 1.114541,-3.343623 2.352919,-6.811083 3.838973,-10.278544 0.990704,1.981407 2.105245,4.08665 3.343623,6.068056 z M 34.52659,46.972288 c 3.46746,-0.743028 7.058758,-1.362217 10.897733,-1.857569 -1.23838,1.981406 -2.476758,3.962813 -3.715137,6.068056 -1.238378,2.105244 -2.352919,4.08665 -3.343623,6.191893 -1.609891,-3.591298 -2.84827,-7.058758 -3.838973,-10.40238 z m 6.811083,16.965788 c 1.609892,-3.343623 3.343622,-6.687245 5.325028,-10.030867 1.857568,-3.219786 3.962811,-6.43957 6.068056,-9.659355 3.715135,-0.247675 7.430272,-0.371513 11.269245,-0.371513 3.962813,0 7.677949,0.123838 11.269247,0.371513 2.229082,3.219785 4.210487,6.439569 6.068056,9.659355 1.981406,3.343622 3.715136,6.687244 5.325032,10.030867 -1.609896,3.343622 -3.343626,6.687245 -5.325032,10.030867 -1.857569,3.219785 -3.962812,6.439569 -6.068056,9.659355 -3.715136,0.247675 -7.430272,0.371513 -11.269247,0.371513 -3.962811,0 -7.677947,-0.123838 -11.269245,-0.371513 -2.229082,-3.219786 -4.210488,-6.43957 -6.068056,-9.659355 -1.981406,-3.343622 -3.715136,-6.687245 -5.325028,-10.030867 z m 48.420605,-6.687245 -3.343624,-6.191893 c -1.238375,-2.105244 -2.352916,-4.08665 -3.715132,-6.068056 3.838969,0.495352 7.430275,1.114541 10.897736,1.857568 -1.114548,3.46746 -2.352923,6.93492 -3.83898,10.402381 z m 0,13.37449 c 1.486057,3.46746 2.724432,6.934921 3.83898,10.278543 -3.467461,0.743028 -7.058767,1.362217 -10.897736,1.857569 1.238378,-1.981407 2.476757,-3.962813 3.715132,-6.068056 1.114548,-1.857569 2.229086,-3.962812 3.343624,-6.068056 z m 2.848268,42.971749 c -0.990701,0.61919 -2.229076,0.86687 -3.591297,0.86687 -6.068052,0 -13.622163,-4.95352 -21.052434,-12.3838 3.591298,-3.838974 7.058758,-8.173299 10.526219,-13.002977 5.820379,-0.495351 11.393081,-1.362216 16.594271,-2.600595 0.619192,2.229082 0.990702,4.458164 1.362221,6.687245 1.73373,10.526217 0.371509,18.080337 -3.83898,20.433257 z m 6.439572,-65.262566 c 13.869842,3.962812 22.166972,10.030868 22.166972,15.603572 0,4.829677 -5.69654,9.659354 -15.72741,13.498327 -1.9814,0.743028 -4.21049,1.486055 -6.439562,2.105245 -1.60989,-5.077353 -3.591294,-10.278544 -6.068052,-15.603572 2.476758,-5.325028 4.581998,-10.526219 6.068052,-15.603572 z m -9.907032,-34.92228 c 1.362221,0 2.476759,0.247676 3.591307,0.866866 4.086642,2.35292 5.572697,9.783192 3.838969,20.433249 -0.371509,2.105244 -0.866865,4.334326 -1.36222,6.687245 C 90.005951,40.285043 84.433251,39.418178 78.612871,38.798989 75.269249,33.969311 71.677951,29.634986 68.086652,25.796012 75.516925,18.489578 83.071035,13.412224 89.139086,13.412224 Z M 70.934923,38.303637 c -2.229082,-0.123838 -4.582001,-0.123838 -6.934921,-0.123838 -2.352919,0 -4.705838,0 -6.934919,0.123838 2.229081,-2.972109 4.582,-5.696543 6.934919,-8.297137 2.35292,2.600594 4.705839,5.448866 6.934921,8.297137 z M 35.393455,14.27909 c 0.990703,-0.61919 2.229082,-0.866866 3.591298,-0.866866 6.068055,0 13.622166,4.953516 21.052438,12.383788 -3.591299,3.838974 -7.058758,8.173299 -10.526219,13.002977 -5.82038,0.49535 -11.393084,1.362216 -16.594274,2.600595 C 32.297509,39.170502 31.925994,36.94142 31.554481,34.712339 29.820751,24.18612 31.182968,16.755847 35.393455,14.27909 Z M 28.953886,79.541648 C 15.084044,75.578836 6.7869063,69.51078 6.7869063,63.938076 c 0,-4.829677 5.6965427,-9.659354 15.7274097,-13.498328 1.981407,-0.743027 4.210488,-1.486054 6.43957,-2.105244 1.609892,5.077353 3.591297,10.278544 6.068055,15.603572 -2.476758,5.325028 -4.582001,10.650057 -6.068055,15.603572 z m 2.600595,13.622165 c 0.371513,-2.105244 0.866865,-4.334326 1.362217,-6.687245 5.20119,1.114541 10.773894,1.981406 16.594274,2.600595 3.343622,4.829678 6.93492,9.164003 10.526219,13.002977 -7.430272,7.30644 -14.984383,12.3838 -21.052438,12.3838 -1.362216,0 -2.476757,-0.24768 -3.591298,-0.86687 -4.210487,-2.35292 -5.572704,-9.90704 -3.838974,-20.433257 z"
     id="path4"
     style="fill:#61dafb;stroke-width:1.23837"
     sodipodi:nodetypes="csccccsccccscsccccscccccccsccccccccccscccccscccccsccccccccccccccsccccccsccccscccccscsccccsccccccsccccccccscc" />
</svg>
