<svg width="301" height="301" viewBox="0 0 301 301" fill="none" xmlns="http://www.w3.org/2000/svg">
<mask id="mask0_402_485" style="mask-type:alpha" maskUnits="userSpaceOnUse" x="0" y="0" width="301" height="301">
<rect x="0.935547" y="0.712799" width="300" height="300" fill="#D9D9D9"/>
</mask>
<g mask="url(#mask0_402_485)">
<path d="M150.936 286.338C134.061 286.338 118.123 283.109 103.123 276.65C88.1231 270.192 75.0481 261.388 63.8981 250.238C52.7564 239.096 43.9564 226.025 37.498 211.025C31.0397 196.025 27.8106 180.088 27.8106 163.213C27.8106 146.338 31.0397 130.4 37.498 115.4C43.9564 100.4 52.7564 87.3253 63.8981 76.1753C75.0481 65.0336 88.1231 56.2336 103.123 49.7753C118.123 43.317 134.061 40.0878 150.936 40.0878C167.811 40.0878 183.748 43.317 198.748 49.7753C213.748 56.2336 226.819 65.0336 237.961 76.1753C249.111 87.3253 257.915 100.4 264.373 115.4C270.831 130.4 274.061 146.338 274.061 163.213C274.061 180.088 270.831 196.025 264.373 211.025C257.915 226.025 249.111 239.096 237.961 250.238C226.819 261.388 213.748 270.192 198.748 276.65C183.748 283.109 167.811 286.338 150.936 286.338ZM183.436 218.213L204.998 196.65L165.936 157.588V100.713H135.936V170.713L183.436 218.213ZM66.248 16.9628L87.4981 37.9003L25.623 99.7753L4.68555 78.5253L66.248 16.9628ZM235.623 16.9628L297.186 78.5253L276.248 99.7753L214.373 37.9003L235.623 16.9628Z" fill="#C2C2C2"/>
</g>
</svg>
